<svg xmlns="http://www.w3.org/2000/svg" height="20" width="20"><path d="M14.771 15.958q-.417 0-.698-.281-.281-.281-.281-.698 0-.417.281-.708.281-.292.698-.292.417 0 .698.292.281.291.281.708t-.281.698q-.281.281-.698.281Zm-8.646 2.813q-.417 0-.708-.281-.292-.282-.292-.698 0-.417.292-.698.291-.282.708-.282.396 0 .687.282.292.281.292.698 0 .416-.281.698-.281.281-.698.281ZM5.5 15.958q-.417 0-.698-.281-.281-.281-.281-.698 0-.417.281-.708.281-.292.698-.292h6.75q.417 0 .698.292.281.291.281.708t-.281.698q-.281.281-.698.281Zm3.146 2.813q-.417 0-.708-.281-.292-.282-.292-.698 0-.417.292-.698.291-.282.708-.282h5.229q.417 0 .708.282.292.281.292.698 0 .416-.281.698-.282.281-.698.281Zm-2.5-5.667q-1.875 0-3.146-1.364-1.271-1.365-1.271-3.261 0-1.687 1.115-2.906 1.114-1.219 2.781-1.469.667-1.166 1.844-1.854Q8.646 1.562 10 1.562q1.812 0 3.177 1.136 1.365 1.135 1.74 2.885 1.416.105 2.385 1.209.969 1.104.969 2.541 0 1.563-1.104 2.667-1.105 1.104-2.667 1.104Zm.104-2.042h8.25q.729 0 1.229-.5.5-.5.5-1.229 0-.729-.5-1.229-.5-.5-1.229-.5h-1.375l-.187-1.521q-.167-1.083-1-1.781-.834-.698-1.938-.698-.875 0-1.604.479-.729.479-1.104 1.271l-.354.75H6.25q-1.021-.021-1.75.709-.729.729-.729 1.749 0 1.042.729 1.771.729.729 1.75.729ZM10 7.333Z"/></svg>