<svg xmlns="http://www.w3.org/2000/svg" height="20" width="20"><path d="M5.5 15.396q-.521 0-.896-.365-.375-.364-.375-.906 0-.521.375-.896t.896-.375q.521 0 .896.375t.375.896q0 .521-.375.896t-.896.375ZM8 18.938q-.521 0-.896-.365t-.375-.906q0-.521.375-.896T8 16.396q.521 0 .896.375t.375.896q0 .521-.375.895-.375.376-.896.376Zm2.5-3.542q-.521 0-.896-.365-.375-.364-.375-.906 0-.521.375-.896t.896-.375q.521 0 .896.375t.375.896q0 .521-.375.896t-.896.375Zm5 0q-.521 0-.896-.365-.375-.364-.375-.906 0-.521.375-.896t.896-.375q.521 0 .896.375t.375.896q0 .521-.375.896t-.896.375ZM13 18.938q-.521 0-.896-.365t-.375-.906q0-.521.375-.896t.896-.375q.521 0 .896.375t.375.896q0 .521-.375.895-.375.376-.896.376Zm-6.854-6.834q-1.875 0-3.146-1.364-1.271-1.365-1.271-3.261 0-1.687 1.115-2.906 1.114-1.219 2.781-1.469.687-1.146 1.854-1.844Q8.646.562 10 .562q1.812 0 3.177 1.126 1.365 1.124 1.719 2.895 1.437.188 2.406 1.24.969 1.052.969 2.51 0 1.563-1.104 2.667-1.105 1.104-2.667 1.104Zm.042-2.042H14.5q.729 0 1.229-.52.5-.521.5-1.23 0-.729-.5-1.239-.5-.511-1.229-.511h-1.375V5.458q0-1.229-.906-2.041-.907-.813-2.157-.813-1.041 0-1.843.656Q7.417 3.917 7 4.875l-.062.167h-.167q-1.188.02-2.094.698-.906.677-.906 1.781 0 1.041.698 1.791t1.719.75ZM10 8.312Z"/></svg>