<svg xmlns="http://www.w3.org/2000/svg" height="20" width="20"><path d="m9.896 19.979 1.916-2.229-1.77-1.021 2.52-2.75h2.563L13 16.229l1.729.979-2.375 2.771Zm-5.542 0 1.917-2.229L4.5 16.729l2.521-2.75h2.562l-2.125 2.25 1.73.979-2.376 2.771Zm1.792-6.875q-1.875 0-3.146-1.364-1.271-1.365-1.271-3.261 0-1.687 1.115-2.906 1.114-1.219 2.781-1.469.667-1.166 1.844-1.854Q8.646 1.562 10 1.562q1.812 0 3.177 1.136 1.365 1.135 1.74 2.885 1.416.105 2.385 1.209.969 1.104.969 2.541 0 1.563-1.104 2.667-1.105 1.104-2.667 1.104Zm.104-2.042h8.25q.729 0 1.229-.51.5-.51.5-1.219 0-.729-.5-1.229-.5-.5-1.229-.5h-1.375l-.187-1.521q-.167-1.083-1-1.781-.834-.698-1.938-.698-.875 0-1.604.479-.729.479-1.104 1.271l-.354.75h-.667q-1.042-.021-1.771.709-.729.729-.729 1.749 0 1.042.719 1.771.718.729 1.76.729ZM10 7.333Z"/></svg>