<?xml version="1.0" encoding="UTF-8" standalone="no"?>
<!DOCTYPE svg PUBLIC "-//W3C//DTD SVG 1.1//EN" "http://www.w3.org/Graphics/SVG/1.1/DTD/svg11.dtd">
<svg width="100%" height="100%" viewBox="0 0 4271 3300" version="1.1" xmlns="http://www.w3.org/2000/svg" xmlnsXlink="http://www.w3.org/1999/xlink" xmlSpace="preserve" xmlnsserif="http://www.serif.com/" style="fill-rule:evenodd;clip-rule:evenodd;stroke-linejoin:round;stroke-miterlimit:2;">
    <g transform="matrix(1.34,0,0,1.34,-138.988,-190.218)">
        <path d="M2010.73,1775.6C2101.68,1708.08 2296.18,1565.08 2357.73,1531C2385.04,1515.87 2444.57,1520 2450.86,1541C2453.55,1549.98 2452.22,1570.28 2448.21,1586.09C2488.62,1552.8 2563.98,1551.82 2590.19,1575.69C2609.8,1593.55 2590.63,1628.07 2570.14,1658.47C2570.14,1658.47 2398.01,1907.56 2357.28,1963.8C2348.49,1975.94 2338.09,1987.33 2325.8,1995.92C2251.59,2047.8 1912.05,2275.07 1912.05,2275.07C1835.99,2326.17 1753.52,2337.69 1664.75,2310.49L1331.62,2198.64C1208.52,2142.09 1121.99,2140.56 1020.59,2207.96L940.188,2260.53L701.618,1901.73C701.618,1901.73 715.41,1891.58 720.51,1886.84C767.436,1843.18 850.827,1727.5 910.792,1682.46C959.259,1646.07 1020.41,1625.97 1080.3,1616.65C1142.71,1606.94 1218.21,1610.76 1285.24,1624.2C1391.06,1645.41 1615.86,1736.22 1715.18,1743.92C1770.18,1748.18 1871.06,1742.73 1871.06,1742.73C1871.06,1742.73 1938.55,1742.51 1953.87,1753.92C1960.67,1758.99 1963.04,1780.55 1958.63,1789.63C1947.61,1812.28 1926.16,1847.72 1898.8,1864.35C1865.35,1884.69 1823.75,1891.6 1778.35,1894.22C1712.86,1898 1581.35,1877.39 1497.4,1866.63C1410.6,1855.5 1252.9,1897.86 1252.9,1897.86C1230.5,1903.69 1232.87,1939.02 1259.72,1938.77C1260.59,1938.76 1261.52,1938.78 1262.39,1938.64C1297,1932.81 1405.2,1904.28 1463.34,1906.53C1510.64,1908.37 1568.64,1916.73 1625.08,1925.96C1688.11,1936.27 1747.4,1940.92 1802.75,1935.66C1850.61,1931.1 1903,1917.33 1938.01,1889.44C1971.2,1863 1997.61,1820.01 2010.73,1775.6ZM1650,365.833C1992.24,365.833 2270.1,643.691 2270.1,985.934C2270.1,1328.18 1992.24,1606.04 1650,1606.04C1307.76,1606.04 1029.9,1328.18 1029.9,985.934C1029.9,643.691 1307.76,365.833 1650,365.833ZM1593.25,964.059L1476.85,1183.99L1570.7,1182.13L1479.52,1418.85L1823.15,1180.65L1669.94,1182.13L1798.33,964.059L1593.25,964.059ZM1859.46,1042.3L1898.85,1042.3L1899.49,1042.3C1954.66,1041.95 1999.1,996.933 1998.74,941.762C1998.39,886.59 1953.38,842.151 1898.2,842.506L1898.2,842.504C1898.2,787.331 1853.48,742.604 1798.3,742.604C1779.76,742.604 1762.99,747.868 1749.12,755.055C1746.09,756.621 1739.44,759.979 1739.44,759.979L1739.4,755.838C1739.4,674.986 1674.9,603.113 1594.05,603.113C1513.2,603.113 1447.65,668.657 1447.65,749.51C1366.8,749.51 1301.26,815.054 1301.26,895.907C1301.26,976.759 1366.8,1042.3 1447.65,1042.3L1482.72,1042.3C1493.31,947.682 1573.67,874.019 1671.09,874.019C1768.52,874.019 1848.88,947.681 1859.46,1042.3Z"/>
    </g>
</svg>
