<?xml version="1.0" encoding="UTF-8"?>
<svg clipRule="evenodd" fillRule="evenodd" strokeLinecap="round" strokeLinejoin="round" strokeMiterlimit="1.5" version="1.1" viewBox="1144.5 300 1827.7 1661.9" xmlSpace="preserve" xmlns="http://www.w3.org/2000/svg" xmlnsSerif="http://www.serif.com/">
    <g transform="matrix(1.34 0 0 1.34 -138.99 -190.22)">
        <path d="m1650 365.83c342.24 0 620.1 277.86 620.1 620.1 0 342.25-277.86 620.11-620.1 620.11s-620.1-277.86-620.1-620.11c0-342.24 277.86-620.1 620.1-620.1zm-56.75 598.23-116.4 219.93 93.85-1.86-91.18 236.72 343.63-238.2-153.21 1.48 128.39-218.07h-205.08zm266.21 78.241h39.39 0.64c55.17-0.35 99.61-45.367 99.25-100.54-0.35-55.172-45.36-99.611-100.54-99.256v-2e-3c0-55.173-44.72-99.9-99.9-99.9-18.54 0-35.31 5.264-49.18 12.451-3.03 1.566-9.68 4.924-9.68 4.924l-0.04-4.141c0-80.852-64.5-152.72-145.35-152.72s-146.4 65.544-146.4 146.4c-80.85 0-146.39 65.544-146.39 146.4 0 80.852 65.54 146.39 146.39 146.39h35.07c10.59-94.618 90.95-168.28 188.37-168.28 97.43 0 177.79 73.662 188.37 168.28z"/>
    </g>
    <g transform="matrix(1.7608 0 0 1.7608 -824.11 -823.14)">
        <g transform="matrix(1 0 0 -1 0 1502.4)">
            <path d="m2082 669.28c-3.18 45.044-26.82 72.236-70.5 81.938" fill="none" stroke="#000" strokeWidth="12.25px"/>
        </g>
        <g transform="matrix(-1 0 0 -1 4164 1502.4)" serif:id="Layer7">
            <path d="m2082 669.28c-3.18 45.044-26.82 72.236-70.5 81.938" fill="none" stroke="#000" strokeWidth="12.25px"/>
        </g>
        <g transform="matrix(-1 0 0 1 4164 0)" serif:id="Layer7">
            <path d="m2082 669.28c-3.18 45.044-26.82 72.236-70.5 81.938" fill="none" stroke="#000" strokeWidth="12.25px"/>
        </g>
        <g serif:id="Layer7">
            <path d="m2082 669.28c-3.18 45.044-26.82 72.236-70.5 81.938" fill="none" stroke="#000" strokeWidth="12.25px"/>
        </g>
        <g transform="matrix(.56792 0 0 .56792 452.86 467.97)">
            <path d="m2767.2 498.46c54.36-18.633 87.05-50.411 100.91-93.609-9.09 13.024 87.15 109.83 97.04 92.151 15.2-27.158-114.12 73.488-96.82 94.629-10.24-51.475-46.25-80.523-101.13-93.171z"/>
            <path d="m2857.9 402.35c0.39-1.367 0.94-2.531 1.59-3.465 2.96-4.226 8.55-5.66 13.17-3.373 4.42 2.189 6.67 7.157 5.48 11.882 0.75 1.626 2.77 5.829 4.96 9.07 12.58 18.602 40.22 46.908 61.17 62.54 3.4 2.536 6.6 4.726 9.52 6.441 0.24-0.124 0.47-0.243 0.69-0.358 6.2-3.137 11.07-3.341 13.42-2.776 2.91 0.7 5.01 2.243 6.52 4.241 1.75 2.326 4.15 7.671-0.24 15.531-2.82 5.032-7.5 7.828-14.3 7.452-1.29-0.071-2.76-0.339-4.38-0.797-0.69 0.439-1.38 0.886-2.04 1.336-21.36 14.552-56.01 44.168-70.84 65.567-2.24 3.246-4.16 7.647-5.03 9.803 0.31 1.369 0.61 2.753 0.88 4.152 0.94 4.689-1.44 9.411-5.77 11.451-4.32 2.041-9.48 0.876-12.5-2.824-2.69-3.277-4.14-7.382-3.95-12.251-11.38-42.429-43.89-66.401-91.46-77.365-4.53-1.045-7.82-4.967-8.06-9.611-0.24-4.645 2.63-8.886 7.03-10.394 50.38-17.271 81.09-46.335 94.14-86.252zm10.85 156.98c0.03-0.044 0.06-0.088 0.1-0.132 15.49-20.211 44.42-45.578 65.93-61.34-0.98-0.689-1.97-1.408-2.97-2.154-21.36-15.937-48.95-44.113-63.6-64.292-14.32 27.329-37.36 49.407-70.15 65.539 32.88 12.679 57 33.003 70.69 62.379z"/>
        </g>
    </g>
    <g transform="matrix(1.2941 0 0 1.2941 -1450.3 675.7)" serif:id="StarBlack">
        <g transform="matrix(1 0 0 -1 0 1502.4)" serif:id="Layer7">
            <path d="m2082 669.28c-3.18 45.044-26.82 72.236-70.5 81.938" fill="none" stroke="#000" strokeWidth="16.67px"/>
        </g>
        <g transform="matrix(-1 0 0 -1 4164 1502.4)" serif:id="Layer7">
            <path d="m2082 669.28c-3.18 45.044-26.82 72.236-70.5 81.938" fill="none" stroke="#000" strokeWidth="16.67px"/>
        </g>
        <g transform="matrix(-1 0 0 1 4164 0)" serif:id="Layer7">
            <path d="m2082 669.28c-3.18 45.044-26.82 72.236-70.5 81.938" fill="none" stroke="#000" strokeWidth="16.67px"/>
        </g>
        <g serif:id="Layer7">
            <path d="m2082 669.28c-3.18 45.044-26.82 72.236-70.5 81.938" fill="none" stroke="#000" strokeWidth="16.67px"/>
        </g>
        <g transform="matrix(.77273 0 0 .77273 1090.7 -598.79)">
            <path d="m1219.9 1746.6 63.62-60.86 61.9 60.32-60.28 61.76-65.24-61.22z"/>
            <path d="m1212.7 1739 63.62-60.87c4.05-3.88 10.45-3.85 14.47 0.07l61.9 60.32c1.98 1.93 3.11 4.57 3.15 7.33 0.03 2.77-1.04 5.43-2.97 7.41l-60.28 61.76c-3.96 4.06-10.44 4.2-14.58 0.32l-65.24-61.22c-2.08-1.96-3.27-4.69-3.29-7.55-0.01-2.86 1.15-5.6 3.22-7.57zm22.34 7.45 49.78 46.71 45.86-46.99-47.23-46.03-48.41 46.31z"/>
        </g>
    </g>
</svg>
